<?xml version="1.0" encoding="UTF-8" standalone="no"?>
<!-- Created with Inkscape (http://www.inkscape.org/) -->

<svg
   xmlns:dc="http://purl.org/dc/elements/1.1/"
   xmlns:cc="http://creativecommons.org/ns#"
   xmlns:rdf="http://www.w3.org/1999/02/22-rdf-syntax-ns#"
   xmlns:svg="http://www.w3.org/2000/svg"
   xmlns="http://www.w3.org/2000/svg"
   xmlns:sodipodi="http://sodipodi.sourceforge.net/DTD/sodipodi-0.dtd"
   xmlns:inkscape="http://www.inkscape.org/namespaces/inkscape"
   version="1.1"
   id="svg2"
   xml:space="preserve"
   width="1128"
   height="494.66666"
   viewBox="0 0 1128 494.66666"
   sodipodi:docname="logo_full_bg.svg"
   inkscape:version="0.92.2 2405546, 2018-03-11"><metadata
     id="metadata8"><rdf:RDF><cc:Work
         rdf:about=""><dc:format>image/svg+xml</dc:format><dc:type
           rdf:resource="http://purl.org/dc/dcmitype/StillImage" /><dc:title></dc:title></cc:Work></rdf:RDF></metadata><defs
     id="defs6" /><sodipodi:namedview
     pagecolor="#ffffff"
     bordercolor="#666666"
     borderopacity="1"
     objecttolerance="10"
     gridtolerance="10"
     guidetolerance="10"
     inkscape:pageopacity="0"
     inkscape:pageshadow="2"
     inkscape:window-width="1920"
     inkscape:window-height="1038"
     id="namedview4"
     showgrid="false"
     inkscape:zoom="0.31294326"
     inkscape:cx="123.0255"
     inkscape:cy="247.33333"
     inkscape:window-x="0"
     inkscape:window-y="20"
     inkscape:window-maximized="0"
     inkscape:current-layer="g10" /><g
     id="g10"
     inkscape:groupmode="layer"
     inkscape:label="ink_ext_XXXXXX"
     transform="matrix(1.3333333,0,0,-1.3333333,0,494.66667)"><g
       id="g12"
       transform="scale(0.1)"><path
         d="M 3714.14,1821.22 C 3696.35,813.016 2873.62,1.16406 1861.16,1.16406 848.707,1.16406 25.9844,813.016 8.19141,1821.22 H 621.258 C 638.926,1151.61 1187.29,614.203 1861.16,614.203 c 571.3,0 1052.25,386.247 1196.27,911.827 h -647.38 c -111.78,-186.38 -315.73,-311.15 -548.89,-311.15 -342.11,0 -621.49,268.56 -638.82,606.34 h 2491.8"
         style="fill:#ffffff;fill-opacity:1;fill-rule:evenodd;stroke:none"
         id="path14"
         inkscape:connector-curvature="0" /><path
         d="M 3714.26,1878.71 C 3701.3,2891.16 2876.69,3707.94 1861.16,3707.94 845.637,3707.94 21.0273,2891.16 8.07422,1878.71 H 621.109 c 12.883,673.86 563.101,1216.2 1240.051,1216.2 571.27,0 1052.25,-386.24 1196.27,-911.8 h -647.4 c -111.8,186.35 -315.74,311.12 -548.87,311.12 -345.19,0 -626.47,-273.44 -639.18,-615.52 h 2492.28"
         style="fill:#ffffff;fill-opacity:1;fill-rule:evenodd;stroke:none"
         id="path16"
         inkscape:connector-curvature="0" /><path
         d="m 4473.28,2307.8 v 117.25 h -374.91 v 450.64 h 135.8 v -335.31 h 155.87 v 335.31 h 135.7 v -335.31 h 69.5 V 2307.8 Z m 188.89,117.25 v 450.64 h 280.63 v -106.2 h -144.82 v -65.65 H 4934 v -106.3 h -136.02 v -66.3 h 155.22 v -106.19 z m 646.84,0 v 168.08 h -155.87 v -168.08 h -135.8 v 450.64 h 135.8 v -166.81 h 155.87 v 166.81 h 135.7 v -450.64 z m 453.09,344.44 v -344.44 h -136.33 v 344.44 h -126.04 v 106.2 h 390.02 v -106.2 z m 642.01,-184.19 c 0,-50.74 -15.88,-90.1 -47.74,-118.1 -31.85,-28.1 -77.12,-42.15 -135.8,-42.15 h -185.36 v 344.44 h -126.04 v 106.2 h 262.37 v -151.47 h 56.87 c 40.65,0 73.9,-4.93 99.86,-14.92 25.86,-9.96 44.94,-24.78 57.27,-44.5 12.35,-19.64 18.57,-46.13 18.57,-79.5 z m -143.63,-10.39 c 0,17.68 -4.83,30.79 -14.48,39.36 -9.54,8.58 -24.46,12.88 -44.63,12.88 h -29.83 v -105.02 h 26.41 c 21.55,0 37.43,4.39 47.51,13.18 9.97,8.82 15.02,21.99 15.02,39.6 z M 6826.22,2727 c 0,-30.78 -7.83,-58.12 -23.49,-81.94 -15.55,-23.93 -37.86,-42.39 -66.71,-55.46 -28.98,-13.08 -62.55,-19.63 -100.94,-19.63 h -41.42 v -144.92 h -135.8 v 450.64 h 184.82 c 63.51,0 109.96,-12.03 139.35,-36.15 29.4,-24.04 44.19,-61.57 44.19,-112.54 z m -143.63,-4.72 c 0,18.46 -5.36,32.4 -16.09,41.85 -10.62,9.43 -26.39,14.16 -47.09,14.16 h -25.75 v -111.25 h 30.48 c 38.93,0 58.45,18.46 58.45,55.24 z M 4407.95,1761.97 c 0,-44.62 -16.83,-78.52 -50.63,-101.78 -33.68,-23.3 -82.18,-34.87 -145.46,-34.87 -28.1,0 -54.28,2.14 -78.41,6.44 -24.24,4.27 -44.52,10.29 -60.82,18.01 v 107.48 c 17.59,-10.62 37.33,-18.98 59.11,-24.98 21.76,-5.91 43.54,-8.9 65.33,-8.9 48.8,0 73.27,14.79 73.27,44.29 0,14.69 -7.09,26.06 -21.26,34.11 -14.16,8.04 -34.11,12.13 -59.86,12.13 h -65.1 v 98.67 h 61.9 c 23.92,0 42.03,3.34 54.26,10.2 12.24,6.75 18.36,17.5 18.36,32.18 0,13.21 -5.05,22.96 -15.02,29.18 -10.08,6.34 -25.65,9.43 -46.55,9.43 -32.08,0 -66.41,-9.43 -103.1,-28.2 v 100.82 c 43.33,16.75 89.04,25.11 136.98,25.11 52.89,0 93.44,-9.97 121.66,-29.92 28.3,-20.07 42.46,-48.39 42.46,-85.07 0,-27.89 -8.15,-51.38 -24.55,-70.47 -16.3,-19.22 -39.49,-31.77 -69.4,-37.66 v -1.5 c 32.83,-3.97 58.88,-15.45 78.08,-34.44 19.09,-18.99 28.75,-42.35 28.75,-70.26 z m 342.51,-128.83 -19.84,82.92 h -134.51 l -21.35,-82.92 h -146.74 l 155.22,450.65 h 168.52 l 146.1,-450.65 z m -85.48,352.59 h -3.11 c -0.43,-5.03 -1.94,-13.3 -4.41,-24.76 -2.56,-11.6 -15.23,-61.05 -38.08,-148.36 h 86.15 l -31.44,122.5 c -4.4,18.02 -7.39,34.96 -9.11,50.62 z m 600.26,-8.14 v -344.45 h -135.8 v 450.65 h 291.02 v -106.2 z M 5846,1935.11 c 0,-30.8 -7.82,-58.14 -23.49,-81.95 -15.55,-23.93 -37.86,-42.38 -66.71,-55.46 -28.97,-13.09 -62.55,-19.64 -100.94,-19.64 h -41.42 v -144.92 h -135.8 v 450.65 h 184.82 c 63.51,0 109.97,-12.02 139.35,-36.15 29.4,-24.05 44.19,-61.58 44.19,-112.53 z m -143.62,-4.73 c 0,18.46 -5.36,32.39 -16.1,41.85 -10.62,9.43 -26.39,14.16 -47.09,14.16 h -25.75 v -111.25 h 30.47 c 38.95,0 58.47,18.46 58.47,55.24 z m 479.9,-297.24 -19.85,82.92 h -134.5 l -21.35,-82.92 h -146.74 l 155.21,450.65 h 168.53 l 146.09,-450.65 z m -85.48,352.59 h -3.11 c -0.43,-5.03 -1.94,-13.3 -4.4,-24.76 -2.58,-11.6 -15.25,-61.05 -38.09,-148.36 h 86.15 l -31.44,122.5 c -4.4,18.02 -7.39,34.96 -9.11,50.62 z m 622.27,-478.95 v 126.36 h -256.82 v -126.36 h -119.37 v 234.5 h 44.62 c 54.05,95.68 83.77,209.92 89.24,342.51 h 294.77 v -342.51 h 69.72 v -234.5 z m -83.36,466.74 h -50.51 c -6.34,-76.71 -26.93,-154.16 -61.9,-232.24 h 112.41 z m 600.93,-328.14 c -37.33,-13.42 -80.36,-20.06 -129.16,-20.06 -47.94,0 -89.34,9.1 -124.1,27.45 -34.76,18.36 -61.37,44.41 -79.71,78.32 -18.34,33.79 -27.47,72.82 -27.47,117.02 0,47.52 10.21,89.89 30.79,127.01 20.49,37.01 49.57,65.65 87,85.93 37.55,20.17 80.67,30.24 129.47,30.24 39.06,0 76.71,-4.61 113.18,-14.04 v -125.41 c -12.55,7.52 -27.57,13.4 -44.95,17.6 -17.38,4.17 -34.98,6.22 -52.77,6.22 -36.92,0 -65.97,-10.52 -87.22,-31.75 -21.24,-21.14 -31.85,-49.78 -31.85,-86.05 0,-36.02 10.61,-64.46 31.85,-85.37 21.25,-20.82 49.67,-31.21 85.28,-31.21 32.93,0 66.18,8.35 99.66,25.1 z m 319.22,-12.24 -99.86,190.41 c -6.76,15.12 -10.73,25.53 -12.02,31.12 h -1.5 v -221.53 h -135.8 v 450.65 h 135.8 v -214.34 h 1.5 c 3.97,11.38 8.48,21.79 13.51,31.44 l 89.9,182.9 h 160.9 l -127.86,-214.98 140.09,-235.67 z m 477.46,0 -19.85,82.92 h -134.5 l -21.35,-82.92 h -146.74 l 155.22,450.65 h 168.52 l 146.09,-450.65 z m -85.48,352.59 h -3.12 c -0.42,-5.03 -1.93,-13.3 -4.4,-24.76 -2.56,-11.6 -15.23,-61.05 -38.08,-148.36 h 86.15 l -31.44,122.5 c -4.4,18.02 -7.4,34.96 -9.11,50.62 z M 4511.03,841.242 v 247.048 c 0,23.27 0.76,48.8 2.16,76.7 l 0.96,20.7 h -3.75 c -6.77,-35.39 -11.8,-59.97 -15.45,-73.6 l -66.3,-270.848 h -127.53 l -69.52,267.748 c -1.81,6.75 -6.76,32.28 -14.69,76.7 h -3.87 c 3.01,-70.38 4.4,-114.35 4.4,-132.06 V 841.242 h -119.07 v 450.638 h 203.38 l 61.9,-244.78 c 1.39,-5.06 3.33,-15.24 5.79,-30.69 2.36,-15.35 3.97,-27.238 4.51,-35.621 h 1.93 c 2.26,19.094 6.01,41.521 11.04,67.591 l 57.83,243.5 h 200.16 V 841.242 Z m 651.13,226.558 c 0,-45.28 -9.76,-85.706 -29.18,-121.441 -19.52,-35.718 -46.75,-63.484 -81.74,-83.234 -34.96,-19.844 -74.12,-29.703 -117.56,-29.703 -42.26,0 -80.77,9.539 -115.43,28.75 -34.74,19.187 -61.68,46.109 -80.98,80.766 -19.21,34.64 -28.86,73.902 -28.86,117.672 0,45.91 9.75,87.09 29.17,123.8 19.54,36.68 46.88,65 82.08,85.06 35.18,19.94 75.18,29.91 120.02,29.91 43.12,0 81.75,-9.54 115.86,-28.75 34,-19.08 60.29,-46.43 78.84,-81.95 18.55,-35.49 27.78,-75.84 27.78,-120.88 z m -143.95,-3.75 c 0,37.11 -7.08,66.28 -21.35,87.74 -14.26,21.34 -33.68,31.96 -58.46,31.96 -27.04,0 -48.06,-10.19 -63.19,-30.79 -15.01,-20.47 -22.63,-49.55 -22.63,-86.99 0,-36.68 7.52,-65.34 22.53,-85.814 15.02,-20.484 35.4,-30.781 61.15,-30.781 15.65,0 29.81,4.609 42.36,13.836 12.55,9.227 22.31,22.414 29.28,39.589 6.87,17.15 10.31,37.53 10.31,61.25 z m 592.76,-74.128 c 0,-47.641 -14.58,-84.211 -43.66,-110.07 -29.18,-25.727 -71.22,-38.61 -126.35,-38.61 h -214.98 v 450.638 h 326.54 v -106.19 h -190.73 v -69.72 h 95.47 c 33.36,0 61.47,-5.27 84.42,-15.77 22.96,-10.52 40.21,-25.11 51.81,-44 11.7,-18.86 17.48,-40.97 17.48,-66.278 z m -144.27,-9.766 c 0,13.61 -4.18,24.454 -12.56,32.504 -8.35,8.04 -19.94,12.12 -34.86,12.12 h -57.49 v -92.038 h 51.48 c 16.95,0 30.16,3.977 39.48,12.008 9.34,8.172 13.95,19.852 13.95,35.406 z m 512.31,-138.914 v 189.228 c 0,27.57 0.65,52.57 1.94,74.76 h -1.29 c -4.19,-7.07 -9.02,-14.8 -14.48,-22.95 -5.48,-8.15 -63.84,-88.514 -175.39,-241.038 h -119.08 v 450.638 h 125.72 v -196.41 c 0,-24.25 -0.63,-42.04 -1.92,-53.43 h 1.29 c 0.85,1.94 1.93,3.98 3.32,6.34 1.4,2.25 9.66,14.48 25,36.7 l 152.43,206.8 h 128.18 V 841.242 Z m 415.13,340.368 c -10.41,-89.25 -20.17,-153.5 -29.07,-192.868 -8.91,-39.273 -19.42,-69.406 -31.54,-90.429 -12.23,-21.125 -27.47,-36.797 -45.81,-47.211 -18.24,-10.289 -39.79,-15.547 -64.57,-15.547 -24.45,0 -45.47,2.367 -63.08,6.976 v 106.844 c 7.09,-2.586 15.45,-3.75 25.1,-3.75 11.7,0 22.31,5.688 31.87,17.047 9.54,11.476 17.91,30.57 24.98,57.488 7.19,26.94 14.59,64.59 22.53,112.86 7.83,48.27 14.82,101.26 20.81,158.86 h 315.59 V 841.242 h -135.8 V 1181.61 Z M 6981.21,841.242 V 1009.34 H 6825.35 V 841.242 h -135.8 v 450.638 h 135.8 v -166.81 h 155.86 v 166.81 h 135.71 V 841.242 Z m 653.92,226.558 c 0,-45.28 -9.77,-85.706 -29.18,-121.441 -19.52,-35.718 -46.77,-63.484 -81.75,-83.234 -34.96,-19.844 -74.12,-29.703 -117.56,-29.703 -42.26,0 -80.77,9.539 -115.43,28.75 -34.74,19.187 -61.67,46.109 -80.97,80.766 -19.21,34.64 -28.87,73.902 -28.87,117.672 0,45.91 9.76,87.09 29.18,123.8 19.53,36.68 46.88,65 82.06,85.06 35.19,19.94 75.19,29.91 120.04,29.91 43.11,0 81.74,-9.54 115.85,-28.75 34.01,-19.08 60.29,-46.43 78.83,-81.95 18.56,-35.49 27.8,-75.84 27.8,-120.88 z m -143.96,-3.75 c 0,37.11 -7.09,66.28 -21.35,87.74 -14.26,21.34 -33.68,31.96 -58.46,31.96 -27.04,0 -48.06,-10.19 -63.18,-30.79 -15.02,-20.47 -22.64,-49.55 -22.64,-86.99 0,-36.68 7.52,-65.34 22.54,-85.814 15.01,-20.484 35.39,-30.781 61.14,-30.781 15.65,0 29.81,4.609 42.37,13.836 12.55,9.227 22.3,22.414 29.28,39.589 6.86,17.15 10.3,37.53 10.3,61.25 z m 543.11,-210.581 c -37.33,-13.406 -80.36,-20.047 -129.16,-20.047 -47.94,0 -89.35,9.109 -124.11,27.445 -34.76,18.352 -61.37,44.414 -79.71,78.321 -18.33,33.781 -27.46,72.832 -27.46,117.012 0,47.54 10.21,89.89 30.79,127.02 20.5,37.01 49.57,65.65 87,85.92 37.55,20.17 80.66,30.24 129.46,30.24 39.06,0 76.71,-4.61 113.19,-14.04 v -125.41 c -12.55,7.52 -27.57,13.41 -44.95,17.61 -17.38,4.18 -34.98,6.21 -52.77,6.21 -36.92,0 -65.98,-10.51 -87.23,-31.75 -21.23,-21.12 -31.85,-49.77 -31.85,-86.03 0,-36.03 10.62,-64.48 31.85,-85.384 21.25,-20.82 49.68,-31.211 85.29,-31.211 32.93,0 66.18,8.359 99.66,25.094 z m 297.87,332.221 V 841.242 h -136.34 v 344.448 h -126.04 v 106.19 h 390.03 v -106.19 h -127.65"
         style="fill:#ffffff;fill-opacity:1;fill-rule:nonzero;stroke:none"
         id="path18"
         inkscape:connector-curvature="0" /></g></g></svg>